<?xml version="1.0" standalone="no"?>
<!DOCTYPE svg PUBLIC "-//W3C//DTD SVG 20010904//EN"
 "http://www.w3.org/TR/2001/REC-SVG-20010904/DTD/svg10.dtd">
<svg version="1.0" xmlns="http://www.w3.org/2000/svg"
 width="87.000000pt" height="87.000000pt" viewBox="0 0 87.000000 87.000000"
 preserveAspectRatio="xMidYMid meet">
<metadata>
Created by potrace 1.14, written by Peter Selinger 2001-2017
</metadata>
<g transform="translate(0.000000,87.000000) scale(0.100000,-0.100000)"
fill="#000000" stroke="none">
<path d="M203 463 l0 -268 60 2 c63 2 70 5 73 29 4 29 47 81 75 91 69 26 159
-19 172 -87 6 -26 10 -28 62 -32 35 -2 60 1 66 9 15 17 -9 97 -42 143 -29 40
-36 60 -21 60 15 0 62 98 66 137 l4 39 -63 1 c-60 1 -64 0 -70 -25 -16 -65
-59 -96 -145 -106 -25 -2 -58 -9 -73 -15 -16 -6 -30 -11 -31 -11 -2 0 -3 30
-4 66 -1 82 -36 159 -92 204 l-38 30 1 -267z"/>
</g>
</svg>
